<?xml version="1.0" encoding="UTF-8"?>
<svg version="1.1" xmlns="http://www.w3.org/2000/svg" width="175" height="175">
<path d="M0 0 C1.06549576 -0.00997513 2.13099152 -0.01995026 3.22877502 -0.03022766 C4.39767776 -0.03089233 5.56658051 -0.03155701 6.77090454 -0.03224182 C8.00201462 -0.04056534 9.23312469 -0.04888885 10.50154114 -0.0574646 C13.87976016 -0.07745461 17.25773253 -0.08820938 20.63598967 -0.09329104 C22.74684568 -0.0969338 24.85767796 -0.10317343 26.96852493 -0.11029243 C34.33348889 -0.13478956 41.69838239 -0.14783936 49.06338501 -0.15138245 C55.92713659 -0.15501786 62.79044104 -0.18491242 69.65405595 -0.22678703 C75.54800428 -0.26148432 81.4418044 -0.27693078 87.33585417 -0.27762848 C90.85563452 -0.27842152 94.37495947 -0.28717103 97.89463425 -0.31562614 C101.82101489 -0.3466593 105.74675319 -0.33774976 109.67324829 -0.32521057 C110.83810257 -0.34004486 112.00295685 -0.35487915 113.20310974 -0.37016296 C121.07209231 -0.29843541 121.07209231 -0.29843541 125.05010986 2.62411499 C127.99085578 6.95033999 128.00466426 10.6477348 128.01260376 15.69554138 C128.01756866 16.4487265 128.02253357 17.20191162 128.02764893 17.97792053 C128.04225546 20.4699037 128.04906981 22.96182322 128.05459595 25.45384216 C128.06034838 27.18635561 128.0661061 28.91886904 128.0718689 30.65138245 C128.0823744 34.28459469 128.0882201 37.91778484 128.09170532 41.55101013 C128.09719095 46.20384245 128.12122226 50.85638228 128.14967728 55.50912285 C128.16831083 59.08821972 128.17350962 62.6672462 128.1750412 66.24638748 C128.17806633 67.96158066 128.18609019 69.67677264 128.19922638 71.39191818 C128.2163031 73.79283091 128.21440298 76.19302987 128.20791626 78.59397888 C128.21713104 79.30064697 128.22634583 80.00731506 128.23583984 80.73539734 C128.19063266 86.08349692 126.77752439 89.1889209 123.19424438 93.06834412 C119.68022727 94.87698632 116.22344967 94.6428333 112.36709595 94.56712341 C111.55150208 94.56287857 110.7359082 94.55863373 109.89559937 94.55426025 C107.29721711 94.53750182 104.69961776 94.49985564 102.10147095 94.46165466 C100.33715925 94.44660412 98.57283537 94.43291636 96.8085022 94.42063904 C92.48894938 94.39016242 88.17108381 94.33143833 83.85147095 94.27415466 C83.85147095 101.53415466 83.85147095 108.79415466 83.85147095 116.27415466 C88.14147095 116.27415466 92.43147095 116.27415466 96.85147095 116.27415466 C97.51147095 117.92415466 98.17147095 119.57415466 98.85147095 121.27415466 C98.52147095 121.93415466 98.19147095 122.59415466 97.85147095 123.27415466 C71.78147095 123.27415466 45.71147095 123.27415466 18.85147095 123.27415466 C18.52147095 121.95415466 18.19147095 120.63415466 17.85147095 119.27415466 C18.51147095 118.28415466 19.17147095 117.29415466 19.85147095 116.27415466 C24.207949 115.8541857 28.46704664 116.14520101 32.85147095 116.27415466 C32.85147095 109.01415466 32.85147095 101.75415466 32.85147095 94.27415466 C30.25014282 94.33216248 27.6488147 94.39017029 24.96865845 94.44993591 C22.43678839 94.4889792 19.90495242 94.51931066 17.37295532 94.54881287 C15.61922079 94.57388933 13.86559009 94.60795962 12.11221313 94.65135193 C9.58493388 94.71231071 7.05904114 94.74043185 4.53115845 94.76243591 C3.75279633 94.78824234 2.9744342 94.81404877 2.17248535 94.84063721 C-1.87294625 94.84270089 -4.4047916 94.48652616 -7.62850952 91.93113708 C-11.52222778 87.8257955 -11.30121014 84.23023019 -11.30966187 78.86863708 C-11.31462677 78.11705826 -11.31959167 77.36547943 -11.32470703 76.59112549 C-11.3393153 74.10394882 -11.3461287 71.61683594 -11.35165405 69.12962341 C-11.35740696 67.3995056 -11.36316468 65.6693878 -11.368927 63.93927002 C-11.37943343 60.31025394 -11.38527832 56.68125999 -11.38876343 53.05223083 C-11.39424495 48.40846461 -11.4182671 43.76499206 -11.44673538 39.12131786 C-11.46538594 35.54646966 -11.47056867 31.97169183 -11.4720993 28.39679909 C-11.47512131 26.68522347 -11.48313458 24.97364897 -11.49628448 23.2621212 C-11.5133945 20.86380746 -11.51145281 18.46620633 -11.50497437 16.06785583 C-11.51418915 15.36478302 -11.52340393 14.66171021 -11.53289795 13.93733215 C-11.49401335 9.32760902 -10.60904546 6.17188122 -8.14852905 2.27415466 C-4.84596774 0.07244712 -3.84015268 0.01925914 0 0 Z M-2.14852905 7.27415466 C-11.54474579 26.06658813 -4.14852905 49.26357532 -4.14852905 70.27415466 C37.10147095 70.27415466 78.35147095 70.27415466 120.85147095 70.27415466 C124.54957931 37.66508172 124.54957931 37.66508172 118.85147095 7.27415466 C78.92147095 7.27415466 38.99147095 7.27415466 -2.14852905 7.27415466 Z M-4.14852905 78.27415466 C-3.81852905 80.91415466 -3.48852905 83.55415466 -3.14852905 86.27415466 C-0.70505514 87.49589162 0.86440334 87.39995865 3.59622192 87.40113831 C5.09793694 87.40536804 5.09793694 87.40536804 6.62998962 87.40968323 C8.28359749 87.40664688 8.28359749 87.40664688 9.97061157 87.40354919 C11.12836594 87.40530151 12.2861203 87.40705383 13.47895813 87.40885925 C17.32189413 87.41327553 21.16478444 87.41034055 25.00772095 87.40696716 C27.66808124 87.40764027 30.32844011 87.40860868 32.98880005 87.40986633 C38.57079568 87.41168695 44.1527781 87.40928453 49.73477173 87.40452576 C56.19336777 87.39908334 62.65193224 87.40084607 69.11052752 87.40635216 C74.65025875 87.41088634 80.18998047 87.41153234 85.72971296 87.40891349 C89.040757 87.4073524 92.35178289 87.4075435 95.66282654 87.41044998 C99.35268312 87.41297784 103.04247833 87.40913397 106.73233032 87.40354919 C107.83473557 87.40557343 108.93714081 87.40759766 110.07295227 87.40968323 C111.07409561 87.4068634 112.07523895 87.40404358 113.10671997 87.40113831 C113.97982567 87.40076128 114.85293137 87.40038425 115.75249481 87.3999958 C117.91002223 87.40858069 117.91002223 87.40858069 119.85147095 86.27415466 C120.18147095 83.63415466 120.51147095 80.99415466 120.85147095 78.27415466 C79.60147095 78.27415466 38.35147095 78.27415466 -4.14852905 78.27415466 Z M39.85147095 94.27415466 C39.85147095 101.53415466 39.85147095 108.79415466 39.85147095 116.27415466 C52.06147095 116.27415466 64.27147095 116.27415466 76.85147095 116.27415466 C76.85147095 109.01415466 76.85147095 101.75415466 76.85147095 94.27415466 C64.64147095 94.27415466 52.43147095 94.27415466 39.85147095 94.27415466 Z " fill="#FFFFFF" transform="translate(29.148529052734375,25.725845336914063)"/>
</svg>
