<?xml version="1.0" encoding="UTF-8"?>
<svg version="1.1" xmlns="http://www.w3.org/2000/svg" width="175" height="175">
<path d="M0 0 C1.0470813 -0.00852997 2.0941626 -0.01705994 3.17297363 -0.02584839 C4.31127121 -0.02494202 5.44956879 -0.02403564 6.62236023 -0.02310181 C8.4329744 -0.03317764 8.4329744 -0.03317764 10.28016663 -0.04345703 C13.58409845 -0.05918511 16.88777885 -0.06581122 20.19173074 -0.0670886 C22.25873335 -0.06851257 24.32570981 -0.07278683 26.39270592 -0.07808304 C33.61201519 -0.09657489 40.83125072 -0.10475485 48.05058289 -0.10317993 C54.7665666 -0.10197924 61.48222857 -0.12306921 68.19813091 -0.15466726 C73.97496967 -0.18087271 79.75170364 -0.19154543 85.52860135 -0.19026911 C88.97404024 -0.18976066 92.41919315 -0.19537827 95.86457253 -0.21662521 C99.71104465 -0.23969883 103.5570803 -0.23046057 107.40361023 -0.21841431 C108.53583511 -0.22965332 109.66806 -0.24089233 110.83459473 -0.25247192 C117.59221815 -0.19876528 121.95165756 0.65358228 127.70707703 4.26742554 C132.59366945 9.2826125 133.95204659 13.95624509 133.99760437 20.85848999 C134.01036407 22.17368118 134.02312378 23.48887238 134.03627014 24.84391785 C134.03932826 26.27284599 134.04155577 27.70177612 134.04301453 29.13070679 C134.04944749 30.60655342 134.05617622 32.08239879 134.06318665 33.5582428 C134.07514445 36.6490779 134.07886909 39.73980137 134.0776825 42.83065796 C134.07747955 46.77483301 134.10476186 50.71828553 134.13922691 54.66228962 C134.16155981 57.71052787 134.16551807 60.75859409 134.16446304 63.80690575 C134.16681016 65.26005731 134.17558324 66.71321425 134.19112778 68.16628456 C134.26794934 76.09006956 134.21555195 82.48501643 129.70707703 89.26742554 C125.17628581 93.68204261 120.70739503 95.51159001 114.41415405 95.53485107 C113.36707275 95.54338104 112.31999146 95.55191101 111.24118042 95.56069946 C110.10288284 95.55979309 108.96458527 95.55888672 107.79179382 95.55795288 C106.58471771 95.5646701 105.3776416 95.57138733 104.13398743 95.57830811 C100.83005561 95.59403618 97.5263752 95.60066229 94.22242332 95.60193968 C92.1554207 95.60336364 90.08844424 95.6076379 88.02144814 95.61293411 C80.80213886 95.63142597 73.58290334 95.63960592 66.36357117 95.63803101 C59.64758745 95.63683032 52.93192548 95.65792028 46.21602315 95.68951833 C40.43918438 95.71572378 34.66245041 95.7263965 28.8855527 95.72512019 C25.44011381 95.72461174 21.9949609 95.73022935 18.54958153 95.75147629 C14.70310941 95.7745499 10.85707375 95.76531165 7.01054382 95.75326538 C5.3122065 95.7701239 5.3122065 95.7701239 3.57955933 95.787323 C-3.1780641 95.73361636 -7.53750351 94.88126879 -13.29292297 91.26742554 C-18.1795154 86.25223858 -19.53789253 81.57860599 -19.58345032 74.67636108 C-19.59621002 73.36116989 -19.60896973 72.0459787 -19.62211609 70.69093323 C-19.62517421 69.26200508 -19.62740172 67.83307496 -19.62886047 66.40414429 C-19.63529343 64.92829765 -19.64202216 63.45245228 -19.64903259 61.97660828 C-19.6609904 58.88577318 -19.66471504 55.79504971 -19.66352844 52.70419312 C-19.6633255 48.76001806 -19.69060781 44.81656555 -19.72507286 40.87256145 C-19.74740576 37.82432321 -19.75136402 34.77625698 -19.75030899 31.72794533 C-19.75265611 30.27479377 -19.76142919 28.82163682 -19.77697372 27.36856651 C-19.85379529 19.44478151 -19.8013979 13.04983465 -15.29292297 6.26742554 C-10.76213176 1.85280846 -6.29324098 0.02326107 0 0 Z M-10.63471985 12.57015991 C-13.74447318 17.82767971 -12.8645194 24.52165143 -12.82417297 30.42367554 C-12.82687093 31.81320466 -12.83075588 33.20273194 -12.83576965 34.59225464 C-12.84165059 37.49734562 -12.83314808 40.40194296 -12.81440735 43.30697632 C-12.79161755 47.01937405 -12.80474834 50.73061493 -12.8286972 54.44297028 C-12.8431939 57.3101768 -12.83853173 60.17711181 -12.82818604 63.04432678 C-12.82552938 64.41258381 -12.828751 65.78086599 -12.83810425 67.14909363 C-13.15129002 75.35300157 -13.15129002 75.35300157 -10.63471985 82.96469116 C-4.66231163 88.83747622 1.29525318 88.7000795 9.21684265 88.65560913 C10.36875595 88.66086609 11.52066925 88.66612305 12.70748901 88.67153931 C16.50957355 88.6847271 20.31123834 88.67600511 24.11332703 88.66586304 C26.75838806 88.66788411 29.40344856 88.67079583 32.04850769 88.67456055 C37.58985428 88.68001129 43.13108073 88.67284447 48.67240906 88.65853882 C55.06974812 88.6422135 61.46680029 88.6475025 67.8641324 88.66401803 C74.03005545 88.6792962 80.19585177 88.67764882 86.36178589 88.66887283 C88.98044881 88.66687193 91.59911906 88.66932623 94.21777344 88.67631149 C97.87781657 88.68393211 101.53730925 88.67231219 105.1973114 88.65560913 C106.27905136 88.66168182 107.36079132 88.66775452 108.47531128 88.67401123 C115.31822145 88.61617364 119.97889199 87.9501029 125.0488739 82.96469116 C128.15862723 77.70717136 127.27867346 71.01319965 127.23832703 65.11117554 C127.24102498 63.72164641 127.24490993 62.33211913 127.24992371 60.94259644 C127.25580465 58.03750546 127.24730213 55.13290812 127.2285614 52.22787476 C127.2057716 48.51547702 127.21890239 44.80423615 127.24285126 41.0918808 C127.25734795 38.22467427 127.25268578 35.35773927 127.24234009 32.49052429 C127.23968344 31.12226726 127.24290505 29.75398509 127.2522583 28.38575745 C127.56544408 20.18184951 127.56544408 20.18184951 125.0488739 12.57015991 C119.07646569 6.69737485 113.11890087 6.83477157 105.1973114 6.87924194 C104.0453981 6.87398499 102.8934848 6.86872803 101.70666504 6.86331177 C97.90458051 6.85012398 94.10291571 6.85884596 90.30082703 6.86898804 C87.65576599 6.86696696 85.01070549 6.86405525 82.36564636 6.86029053 C76.82429978 6.85483978 71.28307332 6.8620066 65.741745 6.87631226 C59.34440594 6.89263757 52.94735376 6.88734858 46.55002165 6.87083304 C40.3840986 6.85555487 34.21830228 6.85720225 28.05236816 6.86597824 C25.43370524 6.86797914 22.81503499 6.86552484 20.19638062 6.85853958 C16.53633749 6.85091897 12.8768448 6.86253888 9.21684265 6.87924194 C8.13510269 6.87316925 7.05336273 6.86709656 5.93884277 6.86083984 C-0.9040674 6.91867744 -5.56473794 7.58474818 -10.63471985 12.57015991 Z " fill="#FFFFFF" transform="translate(30.292922973632813,39.732574462890625)"/>
<path d="M0 0 C1 1 1 1 1.09765625 3.94140625 C1.06510417 7.29427083 1.03255208 10.64713542 1 14 C5.29 14 9.58 14 14 14 C14.66 15.32 15.32 16.64 16 18 C15.34 18.99 14.68 19.98 14 21 C10.9609375 21.29296875 10.9609375 21.29296875 7.375 21.1875 C6.18648437 21.16042969 4.99796875 21.13335937 3.7734375 21.10546875 C2.85820313 21.07066406 1.94296875 21.03585938 1 21 C1.02320312 21.91523437 1.04640625 22.83046875 1.0703125 23.7734375 C1.09738281 25.55621094 1.09738281 25.55621094 1.125 27.375 C1.14820312 28.55835937 1.17140625 29.74171875 1.1953125 30.9609375 C1 34 1 34 -1 36 C-2.65 35.67 -4.3 35.34 -6 35 C-6 30.38 -6 25.76 -6 21 C-10.62 21 -15.24 21 -20 21 C-21 16 -21 16 -20 14 C-15.38 14 -10.76 14 -6 14 C-6 9.38 -6 4.76 -6 0 C-3.49749232 -1.25125384 -2.59701335 -0.83774624 0 0 Z " fill="#FFFFFF" transform="translate(61,70)"/>
<path d="M0 0 C2.5625 0.375 2.5625 0.375 4.5 2 C5.5625 4.375 5.5625 4.375 4.75 7.625 C4.358125 8.5325 3.96625 9.44 3.5625 10.375 C0.1875 10.5625 0.1875 10.5625 -3.4375 10.375 C-5.4375 7.375 -5.4375 7.375 -5.1875 4.8125 C-4.1927353 1.57951474 -3.3898104 0.52150929 0 0 Z " fill="#FFFFFF" transform="translate(109.4375,74.625)"/>
<path d="M0 0 C3 0.25 3 0.25 5 2.25 C5.25 5.25 5.25 5.25 5 8.25 C4.34 8.91 3.68 9.57 3 10.25 C-0.625 9.875 -0.625 9.875 -4 9.25 C-4.625 5.875 -4.625 5.875 -5 2.25 C-3 0.25 -3 0.25 0 0 Z " fill="#FFFFFF" transform="translate(131,89.75)"/>
</svg>
