<?xml version="1.0" encoding="UTF-8"?>
<svg version="1.1" xmlns="http://www.w3.org/2000/svg" width="175" height="175">
<path d="M0 0 C3.61834874 2.75637333 6.83099072 5.74263545 10 9 C10.54914063 9.51691406 11.09828125 10.03382812 11.6640625 10.56640625 C15.44760148 14.44099296 17.80083361 19.09719923 20.25 23.875 C20.76264404 24.86512085 20.76264404 24.86512085 21.28564453 25.87524414 C25.91390797 35.28281799 26.31737892 44.38457231 26.3359375 54.7578125 C26.3459227 56.71145218 26.3459227 56.71145218 26.35610962 58.70455933 C26.36800948 61.44613976 26.37179756 64.18759482 26.37060547 66.92919922 C26.3704016 70.42723338 26.39780522 73.92446138 26.43214989 77.42230415 C26.45982045 80.78415172 26.4585684 84.14585267 26.4609375 87.5078125 C26.47530853 88.75587677 26.48967957 90.00394104 26.50448608 91.28982544 C26.46881165 98.08273914 26.16020044 102.52454719 22 108 C16.50451539 113.09337598 11.94750369 113.25526691 4.8125 113.375 C3.98685547 113.41238281 3.16121094 113.44976562 2.31054688 113.48828125 C-3.9632594 113.57727141 -8.33144825 112.30783355 -13 108 C-18.32931588 101.96391873 -17.61077126 93.68563784 -17.52148438 86.10913086 C-17.50000652 83.93815876 -17.52136707 81.7704818 -17.546875 79.59960938 C-17.57273417 66.70960178 -17.57273417 66.70960178 -13 61 C-6.46069595 54.79604487 -0.33756483 54.63682726 8.37109375 54.73046875 C12.64793906 55.04812464 15.33518112 55.85474017 19 58 C18.54565107 41.57528629 15.07820057 25.07820057 3 13 C-11.09791121 1.34077194 -25.87831331 -3.67987826 -44 -2 C-59.0803896 0.87556725 -71.3147542 8.53881428 -80.10546875 21.02734375 C-87.64032022 32.85006946 -89.32373134 44.33225453 -90 58 C-89.13375 57.505 -88.2675 57.01 -87.375 56.5 C-80.54654564 53.5794798 -71.53216037 53.88103985 -64.5 56.0625 C-60.31608699 57.94301144 -57.48731289 61.21308764 -55 65 C-53.24318212 70.27045364 -53.7346994 75.93973267 -53.70483398 81.45874023 C-53.69334686 82.93572596 -53.67294672 84.41267125 -53.64331055 85.8894043 C-53.30526438 102.74449965 -53.30526438 102.74449965 -58 108 C-63.35520683 112.89020173 -68.50224289 113.77098325 -75.5625 113.5625 C-76.37396484 113.57345703 -77.18542969 113.58441406 -78.02148438 113.59570312 C-83.80692879 113.52566143 -87.24537278 112.30334254 -92 109 C-96.14212512 104.530865 -97.1212104 101.32536775 -97.16113281 95.32617188 C-97.17074036 94.16065796 -97.1803479 92.99514404 -97.19024658 91.79431152 C-97.19449646 90.53187622 -97.19874634 89.26944092 -97.203125 87.96875 C-97.20882507 86.66732056 -97.21452515 85.36589111 -97.22039795 84.02502441 C-97.23090441 81.26440034 -97.2367478 78.50380531 -97.24023438 75.74316406 C-97.24568511 72.23430166 -97.26964002 68.725834 -97.29820633 65.21709442 C-97.32152248 61.84265535 -97.3232964 58.4682653 -97.328125 55.09375 C-97.3404718 53.84750854 -97.3528186 52.60126709 -97.36553955 51.31726074 C-97.32396055 34.82016469 -91.7675605 19.99963631 -80.16015625 8.1015625 C-79.44730469 7.40804687 -78.73445313 6.71453125 -78 6 C-77.48308594 5.45085938 -76.96617188 4.90171875 -76.43359375 4.3359375 C-72.55900704 0.55239852 -67.90280077 -1.80083361 -63.125 -4.25 C-62.46491943 -4.5917627 -61.80483887 -4.93352539 -61.12475586 -5.28564453 C-41.43856522 -14.9707002 -18.16401911 -10.90262097 0 0 Z M-87 65 C-91.44139207 70.86349665 -90.51382551 77.38994498 -90.5 84.4375 C-90.52835938 85.74783203 -90.55671875 87.05816406 -90.5859375 88.40820312 C-90.83385226 96.13251284 -90.83385226 96.13251284 -87.59375 102.84765625 C-83.60324148 106.15905714 -80.70936752 106.24069065 -75.6875 106.3125 C-74.37136719 106.34988281 -73.05523437 106.38726562 -71.69921875 106.42578125 C-67.45302224 105.93704269 -65.93087183 105.04832024 -63 102 C-59.69506758 96.79371854 -60.6719481 90.50643488 -60.6875 84.5625 C-60.67138672 83.33466797 -60.65527344 82.10683594 -60.63867188 80.84179688 C-60.63802734 79.65779297 -60.63738281 78.47378906 -60.63671875 77.25390625 C-60.63373779 76.17439697 -60.63075684 75.0948877 -60.62768555 73.98266602 C-61.16070899 69.71253655 -62.78531268 67.0628514 -66 64.25 C-72.59657084 60.12714322 -80.55538247 61.26212183 -87 65 Z M-9 68 C-10.75014016 73.25042048 -10.26949743 78.81677149 -10.3125 84.3125 C-10.34150391 85.53646484 -10.37050781 86.76042969 -10.40039062 88.02148438 C-10.54884131 96.85325267 -10.54884131 96.85325267 -6 104 C-0.74556409 107.50295727 5.89312161 106.66393403 12 106 C15.40602013 104.43381297 17.30509996 102.38980009 19 99 C19.23432625 94.91384719 19.22839964 90.82599614 19.24023438 86.73364258 C19.24991423 84.70547061 19.28092532 82.67832358 19.3125 80.65039062 C19.31765625 79.36712891 19.3228125 78.08386719 19.328125 76.76171875 C19.3374707 75.58569092 19.34681641 74.40966309 19.35644531 73.19799805 C18.96119907 69.65188122 18.15485756 67.81859138 16 65 C7.8461331 60.2707572 -2.64760541 59.97592262 -9 68 Z " fill="#FFFFFF" transform="translate(123,36)"/>
</svg>
