<?xml version="1.0" encoding="UTF-8"?>
<svg version="1.1" xmlns="http://www.w3.org/2000/svg" width="175" height="175">
<path d="M0 0 C1.14462708 -0.01029488 1.14462708 -0.01029488 2.31237793 -0.02079773 C4.83157019 -0.03907945 7.35014048 -0.03522634 9.86938477 -0.02954102 C11.62289126 -0.03410229 13.37639597 -0.03940769 15.12989807 -0.04542542 C18.80428328 -0.05435928 22.47845118 -0.05193043 26.15283203 -0.04199219 C30.85847773 -0.03050409 35.56337285 -0.05070982 40.26891994 -0.07990932 C43.89008845 -0.0982678 47.51107698 -0.09797956 51.13228035 -0.0922718 C52.86700557 -0.09211854 54.60174294 -0.09816755 56.33642387 -0.11056328 C58.763822 -0.12546466 61.18983239 -0.11480364 63.6171875 -0.09765625 C64.68885918 -0.1121582 64.68885918 -0.1121582 65.78218079 -0.12695312 C69.21971962 -0.07618011 71.26641588 0.33981543 74.23304749 2.12290955 C77.81168626 5.93714253 78.62238605 9.57119376 78.63398743 14.71043396 C78.64107224 15.76040558 78.64815704 16.8103772 78.65545654 17.89216614 C78.65297913 19.0336058 78.65050171 20.17504547 78.64794922 21.35107422 C78.65306015 22.56136292 78.65817108 23.77165161 78.66343689 25.01861572 C78.67494354 28.33068303 78.67740839 31.64249981 78.67487359 34.95456958 C78.67380222 37.72291988 78.67869146 40.49124722 78.68347901 43.25959259 C78.69456554 49.7922199 78.69501638 56.32478971 78.68896484 62.85742188 C78.68292449 69.5892976 78.69523944 76.32096434 78.71653491 83.05280441 C78.73416612 88.83980114 78.7401499 94.62673145 78.73689717 100.41375405 C78.73508663 103.86689664 78.73769742 107.31989015 78.75161171 110.77300835 C78.76655177 114.62463419 78.75720661 118.475995 78.74560547 122.32763672 C78.75324921 123.46705215 78.76089294 124.60646759 78.76876831 125.78041077 C78.72449109 132.42606173 78.36131287 137.1734095 73.66246033 142.25379944 C70.40261388 143.89179498 67.31420342 143.8305211 63.74658203 143.80810547 C62.98349731 143.81496872 62.2204126 143.82183197 61.4342041 143.8289032 C58.91501184 143.84718492 56.39644155 143.84333181 53.87719727 143.83764648 C52.12369077 143.84220775 50.37018606 143.84751316 48.61668396 143.85353088 C44.94229875 143.86246475 41.26813085 143.8600359 37.59375 143.85009766 C32.8881043 143.83860956 28.18320918 143.85881529 23.47766209 143.88801479 C19.85649358 143.90637327 16.23550505 143.90608503 12.61430168 143.90037727 C10.87957647 143.900224 9.14483909 143.90627302 7.41015816 143.91866875 C4.98276003 143.93357013 2.55674964 143.92290911 0.12939453 143.90576172 C-0.58505325 143.91542969 -1.29950104 143.92509766 -2.03559875 143.93505859 C-5.47313759 143.88428557 -7.51983385 143.46829004 -10.48646545 141.68519592 C-14.06510423 137.87096294 -14.87580402 134.23691171 -14.8874054 129.09767151 C-14.89803261 127.52271408 -14.89803261 127.52271408 -14.90887451 125.91593933 C-14.90639709 124.77449966 -14.90391968 123.63306 -14.90136719 122.45703125 C-14.90647812 121.24674255 -14.91158905 120.03645386 -14.91685486 118.78948975 C-14.92836151 115.47742244 -14.93082636 112.16560565 -14.92829156 108.85353589 C-14.92722019 106.08518559 -14.93210943 103.31685825 -14.93689698 100.54851288 C-14.94798351 94.01588556 -14.94843435 87.48331576 -14.94238281 80.95068359 C-14.93634246 74.21880787 -14.9486574 67.48714113 -14.96995288 60.75530106 C-14.98758409 54.96830432 -14.99356787 49.18137402 -14.99031514 43.39435142 C-14.9885046 39.94120882 -14.99111539 36.48821532 -15.00502968 33.03509712 C-15.01996974 29.18347128 -15.01062458 25.33211046 -14.99902344 21.48046875 C-15.00666718 20.34105331 -15.01431091 19.20163788 -15.02218628 18.0276947 C-14.97790906 11.38204373 -14.61473084 6.63469597 -9.9158783 1.55430603 C-6.65603185 -0.08368951 -3.56762139 -0.02241564 0 0 Z M-6.2644043 8.86474609 C-8.31296656 12.6832221 -8.02053416 16.2186384 -7.96728516 20.48706055 C-7.96772324 21.40448029 -7.96816132 22.32190002 -7.96861267 23.26712036 C-7.96652384 26.2973565 -7.94318807 29.32703833 -7.91967773 32.35717773 C-7.91408212 34.45896095 -7.90981186 36.56074809 -7.90681458 38.66253662 C-7.89536309 44.19298109 -7.86589312 49.723189 -7.83270264 55.25354004 C-7.79661128 61.8898225 -7.78284206 68.52618409 -7.76534271 75.16253662 C-7.73625614 85.24320649 -7.67877072 95.32335737 -7.62670898 105.40405273 C18.44329102 105.40405273 44.51329102 105.40405273 71.37329102 105.40405273 C71.4605273 88.79469306 71.4605273 88.79469306 71.51977539 72.18530273 C71.5377192 65.4124447 71.55896253 58.63970815 71.59960938 51.86694336 C71.63216978 46.40750547 71.65013711 40.94819784 71.65792274 35.48867035 C71.6634722 33.4042226 71.67430874 31.3197821 71.69048119 29.23538971 C71.71221115 26.3191224 71.71525978 23.40339559 71.71386719 20.48706055 C71.72465302 19.62247223 71.73543884 18.75788391 71.74655151 17.86709595 C71.72817046 14.3173315 71.71127834 12.02715993 69.99752808 8.86772156 C67.75612758 6.84790062 66.32752879 6.90175748 63.33813477 6.90795898 C62.36424805 6.90731445 61.39036133 6.90666992 60.38696289 6.90600586 C58.86425781 6.93597656 58.86425781 6.93597656 57.31079102 6.96655273 C55.78228516 6.95591797 55.78228516 6.95591797 54.22290039 6.94506836 C50.27658245 6.94341119 50.27658245 6.94341119 46.37329102 7.40405273 C45.71329102 8.39405273 45.05329102 9.38405273 44.37329102 10.40405273 C41.94311523 10.74462891 41.94311523 10.74462891 38.92797852 10.69702148 C37.85161133 10.68735352 36.77524414 10.67768555 35.66625977 10.66772461 C34.53833008 10.64258789 33.41040039 10.61745117 32.24829102 10.59155273 C31.11262695 10.57801758 29.97696289 10.56448242 28.80688477 10.55053711 C25.99521714 10.51509592 23.18448685 10.4656879 20.37329102 10.40405273 C20.04329102 9.41405273 19.71329102 8.42405273 19.37329102 7.40405273 C15.43603776 7.28810689 11.49922178 7.2168881 7.56079102 7.15405273 C6.44124023 7.12053711 5.32168945 7.08702148 4.16821289 7.05249023 C3.09506836 7.03959961 2.02192383 7.02670898 0.91625977 7.01342773 C-0.07349854 6.99248047 -1.06325684 6.9715332 -2.08300781 6.94995117 C-4.66537096 7.18167526 -4.66537096 7.18167526 -6.2644043 8.86474609 Z M-7.62670898 112.40405273 C-9.62670898 130.5707194 -9.62670898 130.5707194 -4.62670898 136.40405273 C-1.40170343 137.0149126 -1.40170343 137.0149126 2.36743164 136.92163086 C3.07506149 136.92864014 3.78269135 136.93564941 4.51176453 136.94287109 C6.85142227 136.96048001 9.18987093 136.94881931 11.52954102 136.93530273 C13.15474683 136.93799685 14.77995108 136.94187859 16.40515137 136.94689941 C19.81151676 136.95279834 23.21746265 136.94421921 26.6237793 136.92553711 C30.99228556 136.90274685 35.35980893 136.91586789 39.72827911 136.93982697 C43.08432433 136.95427457 46.44013614 136.94968383 49.79618835 136.9393158 C51.40695817 136.93664561 53.01774911 136.93992853 54.62849426 136.94923401 C56.87928469 136.95938316 59.12847902 136.94392441 61.37915039 136.92163086 C63.30084045 136.9168573 63.30084045 136.9168573 65.26135254 136.9119873 C68.88042895 136.69022727 68.88042895 136.69022727 71.37329102 132.40405273 C71.37329102 125.80405273 71.37329102 119.20405273 71.37329102 112.40405273 C45.30329102 112.40405273 19.23329102 112.40405273 -7.62670898 112.40405273 Z " fill="#FFFFFF" transform="translate(55.626708984375,15.595947265625)"/>
<path d="M0 0 C2.5 0.25 2.5 0.25 4.5 2.25 C4.75 4.75 4.75 4.75 4.5 7.25 C2.5 9.25 2.5 9.25 0 9.5 C-2.5 9.25 -2.5 9.25 -4.5 7.25 C-4.75 4.75 -4.75 4.75 -4.5 2.25 C-2.5 0.25 -2.5 0.25 0 0 Z " fill="#FFFFFF" transform="translate(87.5,132.75)"/>
</svg>
