<?xml version="1.0" encoding="UTF-8"?>
<svg version="1.1" xmlns="http://www.w3.org/2000/svg" width="175" height="175">
<path d="M0 0 C0.9343689 -0.00630432 1.86873779 -0.01260864 2.8314209 -0.019104 C4.34862732 -0.01303131 4.34862732 -0.01303131 5.89648438 -0.00683594 C6.93212524 -0.00874939 7.96776611 -0.01066284 9.03479004 -0.01263428 C11.22713463 -0.01399691 13.41948726 -0.01029508 15.61181641 -0.00195312 C18.97642054 0.00874514 22.34049069 -0.00184597 25.70507812 -0.01464844 C27.83138139 -0.01332686 29.95768433 -0.01076449 32.08398438 -0.00683594 C33.09545532 -0.0108844 34.10692627 -0.01493286 35.14904785 -0.019104 C36.08341675 -0.01279968 37.01778564 -0.00649536 37.98046875 0 C39.21718323 0.00238678 39.21718323 0.00238678 40.47888184 0.00482178 C42.49023438 0.25878906 42.49023438 0.25878906 44.49023438 2.25878906 C44.80908203 4.32177734 44.80908203 4.32177734 44.90429688 6.82910156 C44.94296875 7.725 44.98164062 8.62089844 45.02148438 9.54394531 C45.05242187 10.48109375 45.08335938 11.41824219 45.11523438 12.38378906 C45.15390625 13.32867187 45.19257812 14.27355469 45.23242188 15.24707031 C45.32684783 17.58411282 45.41241832 19.92114407 45.49023438 22.25878906 C46.15410156 22.48953125 46.81796875 22.72027344 47.50195312 22.95800781 C56.32722231 26.21755979 61.18131719 30.92269158 65.49023438 39.25878906 C66.44047517 42.35552992 66.63198515 45.18768527 66.66723633 48.41943359 C66.68648918 49.96221481 66.68648918 49.96221481 66.70613098 51.53616333 C66.71351791 52.64345795 66.72090485 53.75075256 66.72851562 54.89160156 C66.73658737 56.03861542 66.74465912 57.18562927 66.75297546 58.36740112 C66.7668043 60.79667658 66.77753182 63.22597137 66.78540039 65.65527344 C66.8025727 69.34901372 66.84646678 73.04184942 66.890625 76.73535156 C66.90075607 79.09992834 66.90927087 81.4645127 66.91601562 83.82910156 C66.93352371 84.92425079 66.9510318 86.01940002 66.96907043 87.1477356 C66.94589938 95.44361238 65.51059537 102.48333782 60.24023438 109.07128906 C55.63567608 112.73400589 51.26757317 115.91532674 45.49023438 117.25878906 C45.47041504 117.8541748 45.4505957 118.44956055 45.43017578 119.06298828 C45.33507312 121.75371059 45.22533595 124.44364054 45.11523438 127.13378906 C45.08429688 128.0709375 45.05335937 129.00808594 45.02148438 129.97363281 C44.9828125 130.86953125 44.94414063 131.76542969 44.90429688 132.68847656 C44.85716553 133.92960205 44.85716553 133.92960205 44.80908203 135.19580078 C44.49023438 137.25878906 44.49023438 137.25878906 42.49023438 139.25878906 C40.47888184 139.51275635 40.47888184 139.51275635 37.98046875 139.51757812 C37.04609985 139.52388245 36.11173096 139.53018677 35.14904785 139.53668213 C34.1375769 139.53263367 33.12610596 139.52858521 32.08398438 139.52441406 C31.04834351 139.52632751 30.01270264 139.52824097 28.94567871 139.5302124 C26.75333412 139.53157503 24.56098149 139.5278732 22.36865234 139.51953125 C19.00404821 139.50883299 15.63997806 139.51942409 12.27539062 139.53222656 C10.14908736 139.53090498 8.02278442 139.52834262 5.89648438 139.52441406 C4.37927795 139.53048676 4.37927795 139.53048676 2.8314209 139.53668213 C1.42986755 139.52722565 1.42986755 139.52722565 0 139.51757812 C-1.23671448 139.51519135 -1.23671448 139.51519135 -2.49841309 139.51275635 C-4.50976563 139.25878906 -4.50976563 139.25878906 -6.50976562 137.25878906 C-6.82861328 135.19580078 -6.82861328 135.19580078 -6.92382812 132.68847656 C-6.9625 131.79257813 -7.00117187 130.89667969 -7.04101562 129.97363281 C-7.08742188 128.56791016 -7.08742188 128.56791016 -7.13476562 127.13378906 C-7.1734375 126.18890625 -7.21210937 125.24402344 -7.25195312 124.27050781 C-7.34637908 121.93346531 -7.43194957 119.59643406 -7.50976562 117.25878906 C-8.17363281 117.02804688 -8.8375 116.79730469 -9.52148438 116.55957031 C-18.34675356 113.30001833 -23.20084844 108.59488654 -27.50976562 100.25878906 C-28.46000642 97.16204821 -28.6515164 94.32989286 -28.68676758 91.09814453 C-28.69960281 90.06962372 -28.71243805 89.04110291 -28.72566223 87.98141479 C-28.73674263 86.32047287 -28.73674263 86.32047287 -28.74804688 84.62597656 C-28.75611862 83.47896271 -28.76419037 82.33194885 -28.77250671 81.150177 C-28.78633555 78.72090155 -28.79706307 76.29160676 -28.80493164 73.86230469 C-28.82210395 70.1685644 -28.86599803 66.47572871 -28.91015625 62.78222656 C-28.92028732 60.41764979 -28.92880212 58.05306542 -28.93554688 55.68847656 C-28.95305496 54.59332733 -28.97056305 53.4981781 -28.98860168 52.36984253 C-28.96543063 44.07396575 -27.53012662 37.03424031 -22.25976562 30.44628906 C-17.65520733 26.78357224 -13.28710442 23.60225138 -7.50976562 22.25878906 C-7.48994629 21.66340332 -7.47012695 21.06801758 -7.44970703 20.45458984 C-7.35460437 17.76386754 -7.2448672 15.07393758 -7.13476562 12.38378906 C-7.10382812 11.44664063 -7.07289062 10.50949219 -7.04101562 9.54394531 C-7.00234375 8.64804687 -6.96367188 7.75214844 -6.92382812 6.82910156 C-6.89240723 6.00168457 -6.86098633 5.17426758 -6.82861328 4.32177734 C-6.17033079 0.06259889 -3.72669777 0.00719229 0 0 Z M0.49023438 7.25878906 C0.49023438 12.20878906 0.49023438 17.15878906 0.49023438 22.25878906 C12.70023438 22.25878906 24.91023438 22.25878906 37.49023438 22.25878906 C37.49023438 17.30878906 37.49023438 12.35878906 37.49023438 7.25878906 C25.28023437 7.25878906 13.07023437 7.25878906 0.49023438 7.25878906 Z M-17.50976562 36.25878906 C-20.36452762 41.15266677 -21.62303996 45.27948953 -21.67089844 50.90039062 C-21.68050598 51.81524231 -21.69011353 52.73009399 -21.70001221 53.67266846 C-21.70426208 54.65499451 -21.70851196 55.63732056 -21.71289062 56.64941406 C-21.7185907 57.667995 -21.72429077 58.68657593 -21.73016357 59.73602295 C-21.73960446 61.89122482 -21.74614393 64.04644106 -21.75 66.20166016 C-21.75968853 69.48268138 -21.79071402 72.76307148 -21.82226562 76.04394531 C-21.82879787 78.14159786 -21.83404747 80.23925487 -21.83789062 82.33691406 C-21.85023743 83.31114319 -21.86258423 84.28537231 -21.87530518 85.28912354 C-21.84918411 93.36158502 -20.448186 100.32036869 -14.50976562 106.25878906 C-9.61588792 109.11355106 -5.48906515 110.37206339 0.13183594 110.41992188 C1.04668762 110.42952942 1.96153931 110.43913696 2.90411377 110.44903564 C3.88643982 110.45328552 4.86876587 110.4575354 5.88085938 110.46191406 C6.89944031 110.46761414 7.91802124 110.47331421 8.96746826 110.47918701 C11.12267013 110.4886279 13.27788637 110.49516737 15.43310547 110.49902344 C18.71412669 110.50871197 21.9945168 110.53973746 25.27539062 110.57128906 C27.37304317 110.57782131 29.47070018 110.58307091 31.56835938 110.58691406 C32.5425885 110.59926086 33.51681763 110.61160767 34.52056885 110.62432861 C42.59303033 110.59820755 49.551814 109.19720944 55.49023438 103.25878906 C58.34499637 98.36491136 59.60350871 94.23808859 59.65136719 88.6171875 C59.66097473 87.70233582 59.67058228 86.78748413 59.68048096 85.84490967 C59.68473083 84.86258362 59.68898071 83.88025757 59.69335938 82.86816406 C59.69905945 81.84958313 59.70475952 80.8310022 59.71063232 79.78155518 C59.72007321 77.62635331 59.72661268 75.47113706 59.73046875 73.31591797 C59.74015728 70.03489675 59.77118277 66.75450664 59.80273438 63.47363281 C59.80926662 61.37598027 59.81451622 59.27832326 59.81835938 57.18066406 C59.83687958 55.71932037 59.83687958 55.71932037 59.85577393 54.22845459 C59.82965286 46.1559931 58.42865475 39.19720944 52.49023438 33.25878906 C47.59635667 30.40402707 43.4695339 29.14551473 37.84863281 29.09765625 C36.93378113 29.08804871 36.01892944 29.07844116 35.07635498 29.06854248 C34.09402893 29.0642926 33.11170288 29.06004272 32.09960938 29.05566406 C31.08102844 29.04996399 30.06244751 29.04426392 29.01300049 29.03839111 C26.85779862 29.02895023 24.70258238 29.02241075 22.54736328 29.01855469 C19.26634206 29.00886616 15.98595195 28.97784067 12.70507812 28.94628906 C10.60742558 28.93975682 8.50976857 28.93450722 6.41210938 28.93066406 C4.95076569 28.91214386 4.95076569 28.91214386 3.4598999 28.89324951 C-4.61256158 28.91937058 -11.57134525 30.32036869 -17.50976562 36.25878906 Z M0.49023438 117.25878906 C0.49023438 122.20878906 0.49023438 127.15878906 0.49023438 132.25878906 C12.70023438 132.25878906 24.91023438 132.25878906 37.49023438 132.25878906 C37.49023438 127.30878906 37.49023438 122.35878906 37.49023438 117.25878906 C25.28023437 117.25878906 13.07023437 117.25878906 0.49023438 117.25878906 Z " fill="#FFFFFF" transform="translate(68.509765625,17.7412109375)"/>
<path d="M0 0 C2.4375 0.375 2.4375 0.375 5 1 C6.57234898 4.14469795 6.16296406 7.51217035 6.16796875 10.96484375 C6.17129715 11.75395645 6.17462555 12.54306915 6.17805481 13.35609436 C6.18312098 15.02637142 6.18546323 16.69665862 6.18530273 18.36694336 C6.18748832 20.92383485 6.20564446 23.48029432 6.22460938 26.03710938 C6.22754352 27.65885269 6.22952818 29.28059805 6.23046875 30.90234375 C6.23765427 31.66804184 6.24483978 32.43373993 6.25224304 33.22264099 C6.23586757 37.02327773 6.16057776 38.75913335 4 42 C1.5625 41.625 1.5625 41.625 -1 41 C-2.57234898 37.85530205 -2.16296406 34.48782965 -2.16796875 31.03515625 C-2.17129715 30.24604355 -2.17462555 29.45693085 -2.17805481 28.64390564 C-2.18312098 26.97362858 -2.18546323 25.30334138 -2.18530273 23.63305664 C-2.18748832 21.07616515 -2.20564446 18.51970568 -2.22460938 15.96289062 C-2.22754352 14.34114731 -2.22952818 12.71940195 -2.23046875 11.09765625 C-2.23765427 10.33195816 -2.24483978 9.56626007 -2.25224304 8.77735901 C-2.23586757 4.97672227 -2.16057776 3.24086665 0 0 Z " fill="#FFFFFF" transform="translate(73,68)"/>
<path d="M0 0 C1.98 0 3.96 0 6 0 C8.22433525 4.4486705 7.18499601 10.55221887 7.1875 15.4375 C7.19974609 16.69111328 7.21199219 17.94472656 7.22460938 19.23632812 C7.22750977 21.03553711 7.22750977 21.03553711 7.23046875 22.87109375 C7.23457764 23.97380615 7.23868652 25.07651855 7.24291992 26.21264648 C7 29 7 29 5 32 C2.5625 31.625 2.5625 31.625 0 31 C-1.37262276 28.25475448 -1.1296881 26.03780705 -1.1328125 22.96875 C-1.13410156 21.76605469 -1.13539062 20.56335938 -1.13671875 19.32421875 C-1.13285156 18.06222656 -1.12898438 16.80023438 -1.125 15.5 C-1.12886719 14.23800781 -1.13273437 12.97601563 -1.13671875 11.67578125 C-1.13542969 10.47308594 -1.13414063 9.27039063 -1.1328125 8.03125 C-1.13168457 6.92330078 -1.13055664 5.81535156 -1.12939453 4.67382812 C-1 2 -1 2 0 0 Z " fill="#FFFFFF" transform="translate(97,78)"/>
<path d="M0 0 C2.5 0.125 2.5 0.125 3.5 1.125 C3.58726223 2.90571246 3.60699041 4.6898314 3.59765625 6.47265625 C3.59282227 8.09204102 3.59282227 8.09204102 3.58789062 9.74414062 C3.57951172 10.88044922 3.57113281 12.01675781 3.5625 13.1875 C3.55798828 14.32767578 3.55347656 15.46785156 3.54882812 16.64257812 C3.53699747 19.47010351 3.5205141 22.2975264 3.5 25.125 C-1.25 26.25 -1.25 26.25 -3.5 25.125 C-3.52886984 21.14584841 -3.54675406 17.16672347 -3.5625 13.1875 C-3.57087891 12.05119141 -3.57925781 10.91488281 -3.58789062 9.74414062 C-3.59111328 8.66455078 -3.59433594 7.58496094 -3.59765625 6.47265625 C-3.60289307 5.47242432 -3.60812988 4.47219238 -3.61352539 3.44165039 C-3.45473223 0.20124539 -3.25108125 0.16255406 0 0 Z " fill="#FFFFFF" transform="translate(87.5,83.875)"/>
</svg>
