<svg width="9" height="17" viewBox="0 0 9 17" fill="none" xmlns="http://www.w3.org/2000/svg">
<path d="M8.99968 0.833288C8.75058 0.831453 8.50607 0.900323 8.29454 1.0319C8.08301 1.16348 7.91315 1.35236 7.80468 1.57662L5.95302 5.32995L1.80968 5.93162C1.56324 5.96713 1.33166 6.07094 1.14118 6.23129C0.950692 6.39163 0.808912 6.60212 0.731894 6.83889C0.654876 7.07567 0.645697 7.32929 0.705397 7.57101C0.765096 7.81274 0.891289 8.03292 1.06968 8.20662L4.06968 11.1283L3.36135 15.255C3.31922 15.5001 3.34648 15.7521 3.44007 15.9825C3.53366 16.213 3.68984 16.4126 3.89096 16.559C4.09208 16.7053 4.33012 16.7925 4.57818 16.8106C4.82623 16.8287 5.07442 16.7771 5.29468 16.6616L8.99968 14.7133V0.833288Z" fill="#FFAD33"/>
</svg>
