<svg width="9" height="18" viewBox="0 0 9 18" fill="none" xmlns="http://www.w3.org/2000/svg">
<path opacity="0.25" d="M0.000163078 0.835954C0.249272 0.83404 0.500244 1.00001 0.500244 1.00001C0.500244 1.00001 1.08672 1.20807 1.19519 1.44195L3.04689 5.35634L7.1903 5.98383C7.43675 6.02086 7.66833 6.12912 7.85881 6.29635C8.0493 6.46358 8.19108 6.68309 8.2681 6.93003C8.34512 7.17697 8.3543 7.44147 8.2946 7.69357C8.2349 7.94567 8.10871 8.1753 7.93031 8.35645L4.93025 11.4035L5.6386 15.7072C5.68074 15.9629 5.65347 16.2257 5.55987 16.466C5.46628 16.7064 5.3101 16.9146 5.10898 17.0672C4.90786 17.2198 4.66981 17.3107 4.42175 17.3296C4.17369 17.3486 3.9255 17.2947 3.70523 17.1743L0.000163078 15.1423V0.835954Z" fill="black"/>
</svg>
